<?xml version="1.0" encoding="utf-8"?>
<!-- Generator: Adobe Illustrator 18.1.1, SVG Export Plug-In . SVG Version: 6.00 Build 0)  -->
<svg version="1.1" id="Layer_1" xmlns="http://www.w3.org/2000/svg" xmlns:xlink="http://www.w3.org/1999/xlink" x="0px" y="0px"
	 viewBox="0 0 720 1280" enable-background="new 0 0 720 1280" xml:space="preserve">
<g>
	<g>
		
			<rect x="226" y="670.8" fill="#1E1671" stroke="#1E1671" stroke-width="4.4994" stroke-linecap="round" stroke-linejoin="round" stroke-miterlimit="10" width="84.3" height="127.7"/>
		<path fill="#4331FD" d="M278.9,902.1l51.7-19.7c5.6-2.1,11.8,0.7,13.9,6.2l14.3,37.3c2.1,5.6-0.7,11.8-6.2,13.9l-51.7,19.7
			c-5.6,2.1-11.8-0.7-13.9-6.2L272.7,916C270.5,910.5,273.3,904.2,278.9,902.1z"/>
		
			<rect x="249.1" y="796" transform="matrix(-0.9342 0.3566 -0.3566 -0.9342 869.8965 1559.2655)" fill="#1E1671" stroke="#1E1671" stroke-width="4.4994" stroke-linecap="round" stroke-linejoin="round" stroke-miterlimit="10" width="84.3" height="127.7"/>
		
			<ellipse fill="#1E1671" stroke="#1E1671" stroke-width="4.4994" stroke-linecap="round" stroke-linejoin="round" stroke-miterlimit="10" cx="268.1" cy="671.3" rx="42.1" ry="41.8"/>
		
			<circle fill="#1E1671" stroke="#1E1671" stroke-width="4.4994" stroke-linecap="round" stroke-linejoin="round" stroke-miterlimit="10" cx="268.1" cy="799.4" r="42.1"/>
	</g>
	<path fill="#4331FD" d="M188.7,1137.1l77-0.2c10.1,0,18.3,8.1,18.3,18.2l0.1,20.3l-95.2,0.3L188.7,1137.1z"/>
	<path fill="#4331FD" d="M269.7,1137l77-0.2c10.1,0,18.3,8.1,18.3,18.2l0.1,20.3l-95.2,0.3L269.7,1137z"/>
	<rect x="189" y="881.6" fill="#1E1671" width="84.3" height="127.7"/>
	<circle fill="#1E1671" cx="303.1" cy="881.1" r="42.1"/>
	<rect x="260.9" y="881.6" fill="#1E1671" width="84.3" height="127.7"/>
	<circle fill="#1E1671" cx="231.1" cy="881.1" r="42.1"/>
	
		<rect x="188.9" y="1009.3" transform="matrix(1 -3.245523e-003 3.245523e-003 1 -3.4819 0.7555)" fill="#1E1671" width="84.3" height="127.7"/>
	<circle fill="#1E1671" cx="303.1" cy="1008.8" r="42.1"/>
	<rect x="260.9" y="1009.3" fill="#1E1671" width="84.3" height="127.7"/>
	<circle fill="#1E1671" cx="231.1" cy="1008.8" r="42.1"/>
	<path fill="#3225BD" d="M351,881.7H181.6l-24.2-210c-4-34.7,19.5-65.1,52.5-65.1h112.8c33,0,56.5,30.4,52.5,65.1L351,881.7z"/>
	<g>
		<circle fill="#4331FD" cx="299.8" cy="393" r="209.6"/>
		<path fill="#3225BD" d="M88,361.6c-2.7,19.3-4.7,58.3,12.1,102.9c16.3,43.4,42.3,70.8,56.5,83.9c11.5-13.5,24.8-31.5,36.9-54.4
			c11.4-21.4,18.6-41.4,23.3-57.7c-2.8-1.4-7-3.9-10.8-8.1c-1.4-1.6-10.2-11.3-9.5-23.7c0.7-11.5,10.6-22.1,24.4-27.6
			c2.2-0.3,9.6-1.2,17,3.2c10.1,6,12,16.8,12.2,18.3c5,10.4,10.1,22.3,14.7,35.7c4.7,13.7,8,26.4,10.4,37.8
			c0-7.1,20.7-128.2,21.9-128.2c1.6,5.6,3.9,11.9,7.1,18.6c5.9,12.4,13.1,21.9,19.1,28.6c-0.6-4.3-1.6-14.5,3.4-25.8
			c6-13.6,16.7-20.2,20.3-22.1c2.3,7.4,4.5,14.8,6.8,22.1c5.4,8.4,10.8,16.9,16.3,25.3c2.3-6.3,6.3-14.8,13.1-23.5
			c9.2-11.8,19.5-18.8,26.2-22.6c1.6,6.7,4.2,14.8,8.1,23.5c4.2,9.2,8.9,16.8,13.1,22.6c4.4-6.3,9-12.8,14-19.4
			c6.8-9,13.6-17.5,20.3-25.3c4.3,5.5,9.1,12.6,13.6,21.2c5,9.8,8,18.9,9.9,26.2c3.1-8,9-16.8,15.5-25.8c1.5-2.1,2-4,6-5.8v-17.9
			c0-49.1,54.6-88.8,124.1-88.8c-20.4-11.8-64.3-33-121.5-32.1c-31.2,0.5-59.6,7.4-75.6,13.9v-13.9c0-59.9,43.7-108.5,97.7-108.5
			c-143.4,0-269.6,33.3-269.6,71.5c0-39.5,14.3-71.5,32-71.5c-20.2,5.9-62.2,21.5-96.2,61.6c-15.1,17.8-24.5,35.7-30.4,49.9
			c0-31.7,3.7-57.3,8.2-57.3c-33.3,0-60.2,51.3-60.2,114.6c-6.2-40.5-11.5-60.6-16-60.4C95.8,223.2,91,269.4,88,361.6z"/>
	</g>
	<rect x="203.6" y="579.3" fill="#4331FD" width="107.8" height="27.3"/>
	<g>
		
			<rect x="208" y="670.8" fill="#1E1671" stroke="#1E1671" stroke-width="4.4994" stroke-linecap="round" stroke-linejoin="round" stroke-miterlimit="10" width="84.3" height="127.7"/>
		<path fill="#4331FD" d="M260.9,902.1l51.7-19.7c5.6-2.1,11.8,0.7,13.9,6.2l14.3,37.3c2.1,5.6-0.7,11.8-6.2,13.9l-51.7,19.7
			c-5.6,2.1-11.8-0.7-13.9-6.2L254.7,916C252.5,910.5,255.3,904.2,260.9,902.1z"/>
		
			<rect x="231.1" y="796" transform="matrix(-0.9342 0.3566 -0.3566 -0.9342 835.0845 1565.6841)" fill="#1E1671" stroke="#1E1671" stroke-width="4.4994" stroke-linecap="round" stroke-linejoin="round" stroke-miterlimit="10" width="84.3" height="127.7"/>
		
			<ellipse fill="#1E1671" stroke="#1E1671" stroke-width="4.4994" stroke-linecap="round" stroke-linejoin="round" stroke-miterlimit="10" cx="250.1" cy="671.3" rx="42.1" ry="41.8"/>
		
			<circle fill="#1E1671" stroke="#1E1671" stroke-width="4.4994" stroke-linecap="round" stroke-linejoin="round" stroke-miterlimit="10" cx="250.1" cy="799.4" r="42.1"/>
	</g>
</g>
</svg>
